<?xml version="1.0" encoding="UTF-8" standalone="no"?>
<!-- Generator: Adobe Illustrator 19.2.1, SVG Export Plug-In . SVG Version: 6.00 Build 0)  -->

<svg
   xmlns:dc="http://purl.org/dc/elements/1.1/"
   xmlns:cc="http://creativecommons.org/ns#"
   xmlns:rdf="http://www.w3.org/1999/02/22-rdf-syntax-ns#"
   xmlns:svg="http://www.w3.org/2000/svg"
   xmlns="http://www.w3.org/2000/svg"
   xmlns:sodipodi="http://sodipodi.sourceforge.net/DTD/sodipodi-0.dtd"
   xmlns:inkscape="http://www.inkscape.org/namespaces/inkscape"
   version="1.1"
   id="layer"
   x="0px"
   y="0px"
   viewBox="0 0 600 91.300003"
   xml:space="preserve"
   sodipodi:docname="newsweek-vector-logo-red.svg"
   width="600"
   height="91.300003"
   inkscape:version="0.92.4 (f8dce91, 2019-08-02)"><metadata
   id="metadata13"><rdf:RDF><cc:Work
       rdf:about=""><dc:format>image/svg+xml</dc:format><dc:type
         rdf:resource="http://purl.org/dc/dcmitype/StillImage" /><dc:title></dc:title></cc:Work></rdf:RDF></metadata><defs
   id="defs11" /><sodipodi:namedview
   pagecolor="#ffffff"
   bordercolor="#666666"
   borderopacity="1"
   objecttolerance="10"
   gridtolerance="10"
   guidetolerance="10"
   inkscape:pageopacity="0"
   inkscape:pageshadow="2"
   inkscape:window-width="1366"
   inkscape:window-height="704"
   id="namedview9"
   showgrid="false"
   inkscape:zoom="0.36196319"
   inkscape:cx="310.72542"
   inkscape:cy="27.886441"
   inkscape:window-x="0"
   inkscape:window-y="27"
   inkscape:window-maximized="1"
   inkscape:current-layer="layer" />
<style
   type="text/css"
   id="style2">
	.st0{fill:#F72210;}
</style>
<g
   id="g6"
   style="fill:#ff0000"
   transform="translate(-20.8,-276.4)">
	<path
   class="st0"
   d="m 109.8,292.9 h -8.5 v 73.3 H 85.7 L 47.6,316.1 v 33.5 h 8.5 V 366 H 20.8 v -16.2 h 8.5 V 292.9 H 20.8 V 276.5 H 47.5 L 83,323 v -30.2 h -8.5 v -16.4 h 35.2 z m 56.3,41.2 c 0,1.4 0,2.7 -0.2,4.1 h -38.5 c -1.1,12.4 3.6,16.1 10.8,16.1 5.9,0 10.5,-3.9 10.5,-10 h 16.7 c -0.5,10.9 -6.1,23.4 -28.1,23.4 -22,0 -32.3,-16 -32.3,-33.6 0,-15.9 10.6,-32.8 31.9,-32.8 20.2,-0.1 29.2,14 29.2,32.8 M 262,317.9 h -5.6 l -14.3,48.2 h -19 l -8.9,-26.4 -8,26.4 H 186.8 L 170.6,318 H 165 v -16.4 h 33.5 v 16.2 H 190 l 8.8,25.6 11.5,-41.9 h 10.3 l 14.1,41.9 7.6,-25.6 h -8.5 V 301.6 H 262 Z m 23.5,0.7 c 0,2.3 1.8,3.8 8.2,5.9 l 9.1,3 c 8.3,2.7 18.4,8.9 18.4,20.3 0,13.3 -10,19.7 -22.3,19.7 -9.9,0 -17.4,-4.9 -19.6,-7 v 5.3 H 262.9 V 343.7 H 279 c 0.5,7.3 7,11.1 12.9,11.1 4.9,0 7.1,-2.1 7.1,-4.6 0,-3 -1.8,-4.7 -9.9,-7.3 l -8,-2.7 c -8.2,-2.6 -17.3,-8.6 -17.3,-19.4 0,-13.2 11.7,-19.9 21.7,-19.9 10.3,0 15.3,2.9 17.9,5.8 l 0.2,-5 h 16.1 V 322 h -17 c -0.3,-5.5 -5.6,-7.9 -10.9,-7.9 -4.4,0 -6.3,2 -6.3,4.5 m 133.9,-0.7 h -5.6 l -14.3,48.2 h -19 l -8.9,-26.4 -8,26.4 H 344.2 L 328.1,318 h -5.6 V 301.6 H 356 v 16.2 h -8.5 l 8.8,25.6 11.5,-41.9 h 10.3 l 14.1,42 7.6,-25.6 h -8.5 v -16.4 h 28.1 z m 59.4,16.1 c 0,1.4 0,2.7 -0.2,4.1 h -38.5 c -1.1,12.4 3.6,16.1 10.8,16.1 5.9,0 10.5,-3.9 10.5,-10 h 16.7 c -0.5,10.9 -6.1,23.4 -28.1,23.4 -22,0 -32.3,-15.9 -32.3,-33.5 0,-15.9 10.6,-32.8 31.9,-32.8 20.3,-0.3 29.2,13.8 29.2,32.7 m 63.6,-0.2 c 0,1.4 0,2.7 -0.2,4.1 h -38.5 c -1.1,12.4 3.6,16.1 10.8,16.1 5.9,0 10.5,-3.9 10.5,-10 h 16.7 c -0.5,10.9 -6.1,23.4 -28.1,23.4 -22,0 -32.3,-15.9 -32.3,-33.5 0,-15.9 10.6,-32.8 31.9,-32.8 20.2,-0.2 29.2,13.9 29.2,32.7 m 69.8,32.2 h -19.4 l -20.2,-26.2 -6.5,4.9 v 5.2 h 5.8 V 366 h -29.7 v -16.2 h 5.6 v -57.2 h -8.5 v -16.1 h 27 v 51.4 l 13.5,-9.9 h -8.5 v -16.4 h 36.2 V 318 h -5.6 l -14.1,10.6 16.2,21.1 h 8.5 z m 8.6,-3.7 c 0,0.8 -0.2,1.4 -0.6,1.8 -0.3,0.6 -0.8,1.1 -1.4,1.4 -0.6,0.3 -1.2,0.6 -2,0.6 -0.8,0 -1.4,-0.2 -1.8,-0.6 -0.6,-0.3 -1.1,-0.8 -1.4,-1.4 -0.3,-0.6 -0.6,-1.2 -0.6,-1.8 0,-0.8 0.2,-1.4 0.6,-1.8 0.3,-0.6 0.8,-1.1 1.4,-1.4 0.6,-0.3 1.2,-0.6 1.8,-0.6 0.8,0 1.4,0.2 2,0.6 0.6,0.3 1.1,0.8 1.4,1.4 0.4,0.6 0.6,1.2 0.6,1.8 m -1.5,2.1 c 0.6,-0.6 0.9,-1.4 0.9,-2.1 0,-0.9 -0.3,-1.5 -0.9,-2.1 -0.6,-0.6 -1.4,-0.9 -2.1,-0.9 -0.7,0 -1.5,0.3 -2.1,0.9 -0.6,0.6 -0.9,1.4 -0.9,2.1 0,0.9 0.3,1.5 0.9,2.1 0.6,0.6 1.4,0.9 2.1,0.9 0.7,0 1.5,-0.3 2.1,-0.9 m -1.5,-1.8 c 0.2,0.2 0.3,0.2 0.3,0.2 0.2,0.2 0.3,0.3 0.3,0.5 0,0 0.3,0.5 0.6,1.2 h -1.2 c -0.5,-0.8 -0.6,-1.2 -0.8,-1.4 -0.2,-0.2 -0.3,-0.3 -0.5,-0.3 h -0.2 v 1.7 h -0.9 v -3.9 h 1.8 c 0.6,0 0.9,0.2 1.1,0.3 0.3,0.3 0.3,0.5 0.3,0.9 0,0.3 -0.2,0.6 -0.3,0.8 -0.1,-0.3 -0.2,-0.1 -0.5,0 m -0.2,-0.7 c 0.2,-0.2 0.2,-0.3 0.2,-0.5 0,-0.2 -0.2,-0.3 -0.2,-0.5 -0.2,-0.2 -0.3,-0.2 -0.6,-0.2 h -0.5 v 1.1 h 0.5 c 0.3,0.2 0.5,0.2 0.6,0.1 M 503.7,327.3 h 21.1 c 0,-9.1 -5.9,-12.7 -10.3,-12.7 -5.2,0.1 -10.5,4.2 -10.8,12.7 m -63.5,0.1 h 21.1 c 0,-9.1 -5.9,-12.7 -10.3,-12.7 -5.1,0 -10.4,4.2 -10.8,12.7 m -312.8,0.2 h 21.1 c 0,-9.1 -5.9,-12.7 -10.3,-12.7 -5,-0.1 -10.3,4.2 -10.8,12.7"
   id="path4"
   style="fill:#ff0000"
   inkscape:connector-curvature="0" />
</g>
</svg>