<?xml version="1.0" encoding="UTF-8" standalone="no"?>
<svg
   xmlns:dc="http://purl.org/dc/elements/1.1/"
   xmlns:cc="http://creativecommons.org/ns#"
   xmlns:rdf="http://www.w3.org/1999/02/22-rdf-syntax-ns#"
   xmlns:svg="http://www.w3.org/2000/svg"
   xmlns="http://www.w3.org/2000/svg"
   xmlns:sodipodi="http://sodipodi.sourceforge.net/DTD/sodipodi-0.dtd"
   xmlns:inkscape="http://www.inkscape.org/namespaces/inkscape"
   viewBox="0 0 249.44858 34.835198"
   height="34.835197"
   width="249.44858"
   xml:space="preserve"
   id="svg2"
   version="1.1"
   sodipodi:docname="Newsweek.svg"
   inkscape:version="0.92.4 (f8dce91, 2019-08-02)"><sodipodi:namedview
     pagecolor="#ffffff"
     bordercolor="#666666"
     borderopacity="1"
     objecttolerance="10"
     gridtolerance="10"
     guidetolerance="10"
     inkscape:pageopacity="0"
     inkscape:pageshadow="2"
     inkscape:window-width="1366"
     inkscape:window-height="704"
     id="namedview9"
     showgrid="false"
     inkscape:zoom="0.91237117"
     inkscape:cx="126.99"
     inkscape:cy="9.1321805"
     inkscape:window-x="0"
     inkscape:window-y="27"
     inkscape:window-maximized="1"
     inkscape:current-layer="g10" /><metadata
     id="metadata8"><rdf:RDF><cc:Work
         rdf:about=""><dc:format>image/svg+xml</dc:format><dc:type
           rdf:resource="http://purl.org/dc/dcmitype/StillImage" /></cc:Work></rdf:RDF></metadata><defs
     id="defs6" /><g
     transform="matrix(1.3333333,0,0,-1.3333333,-10.015643,146.268)"
     id="g10"><path
       inkscape:connector-curvature="0"
       d="m 182.34817,90.6699 v -1.0945 h 1.443 v -5.3379 h -9.252 v 5.3051 h 1.221 v 15.1854 h -1.147 v 4.94 h 7.735 V 94.7813 l 3.849,2.6855 h -1.74 v 5.2712 h 10.105 v -5.2712 h -2.111 l -2.146,-1.6578 2.776,-6.2664 h 1.517 v -5.3051 h -10.178 v 5.3379 h 1.592 l -1.148,2.7855 z m -14.006,0.8617 h 6.07 c -1.554,-5.2382 -3.553,-7.957 -10.104,-7.957 -3.072,0 -5.515,0.9945 -7.365,2.6524 -1.74,1.5582 -2.776,4.2769 -2.776,7.2609 0,2.984 1.333,5.5371 2.776,6.9631 1.592,1.591 4.293,2.619 7.365,2.619 3.405,0 6.403,-0.829 7.735,-2.288 1.37,-1.558204 2.443,-4.3101 2.443,-7.2941 V 92.825 92.4934 h -12.325 c 0,-1.3262 0.556,-2.6524 0.629,-2.9508 0.186,-0.7625 1.518,-1.3262 2.776,-1.3262 0.592,0 1.296,0.2649 1.851,0.6629 0.37,0.2652 1.406,1.5586 0.925,2.6523 z m -6.033,3.9457 h 4.627 v 0.3317 c 0,0.9945 -0.481,1.7902 -0.629,1.9894 -0.149,0.2649 -0.926,0.6629 -1.555,0.6629 -0.888,0 -1.554,-0.298 -1.813,-0.6629 0,-0.0332 -0.63,-0.9949 -0.63,-1.9894 z m -8.605,-3.9457 c -1.629,-5.2382 -3.627,-7.957 -10.215,-7.957 -3.072,0 -5.552,0.9945 -7.402,2.6524 -1.74,1.5582 -2.776,4.2769 -2.776,7.2609 0,2.984 1.295,5.4711 2.776,6.9631 1.665,1.624 4.33,2.619 7.402,2.619 3.405,0 6.292,-0.763 7.698,-2.288 1.48,-1.591404 2.48,-4.3101 2.48,-7.2941 V 92.825 92.4934 h -12.325 c 0,-1.3262 0.518,-2.5864 0.629,-2.9508 0.259,-0.7957 1.518,-1.3262 2.739,-1.3262 0.629,0 1.407,0.3649 1.851,0.6629 0.296,0.1992 1.406,1.691 0.999,2.6855 z m -12.214,3.9457 h 4.59 v 0.3317 c 0,0.9945 -0.407,1.757 -0.593,1.9894 -0.259,0.2981 -0.925,0.6629 -1.554,0.6629 -0.925,0 -1.518,-0.232 -1.851,-0.6629 -0.037,-0.0664 -0.592,-0.9949 -0.592,-1.9894 z m -33.309,-11.2398 -5.5519,13.2293 h -1.2586 v 5.2712 h 11.0665 v -5.2712 h -1.184 l 1.517,-5.6367 1.925,5.6367 h -1.444 v 5.2712 h 12.177 v -5.2712 l -1.222,0.0332 1.814,-5.6699 1.851,5.6367 h -1.629 v 5.2712 h 7.809 v -5.2712 h -1.554 l -5.219,-13.2293 h -6.18 l -3.368,9.2504 -3.406,-9.2504 z M 83.383572,97.4668 h -0.8511 l -5.2555,-13.2293 h -6.1438 l -3.405,9.2504 -3.368,-9.2504 h -6.1809 l -5.5515,13.2293 h -1.2215 v 5.2712 h 11.1031 v -5.2712 h -1.2582 l 1.5547,-5.6367 1.9242,5.6367 h -1.4804 v 5.2712 h 12.4726 v -5.2712 h -1.4433 l 1.7765,-5.6367 1.8504,5.6367 h -1.4434 v 5.2712 h 7.5875 v -2.884104 c 0.3332,0.630104 0.7403,1.193104 1.1473,1.591104 1.1473,1.061 2.7758,1.625 4.6262,1.625 1.221495,0 2.294895,-0.133 3.072195,-0.332 0.7399,-0.199 1.8504,-0.63 2.4797,-1.293 v 1.293 h 5.218403 v -5.9345 h -5.218403 c -0.3336,0.6633 -1.0734,1.459 -1.5547,1.6578 -0.4441,0.1989 -1.2214,0.6629 -2.1464,0.6629 -0.6293,0 -1.110595,-0.1324 -1.258595,-0.3312 -0.1481,-0.1657 -0.5922,-0.6633 -0.5922,-0.9946 0,-0.3316 0.4441,-0.4976 0.5922,-0.6632 0.148,-0.1989 1.073395,-0.2657 2.183595,-0.6633 l 2.7761,-0.9946 c 1.6653,-0.5968 3.5157,-1.1269 4.293,-1.9894 0.740203,-0.8621 1.554703,-2.3207 1.554703,-3.6137 0,-1.9894 -0.6293,-3.6472 -1.850803,-4.6418 -1.2211,-0.9949 -2.4426,-1.3926 -4.5894,-1.3926 -0.925,0 -2.2204,0.0329 -3.1086,0.3977 -0.6664,0.2656 -1.850795,0.6633 -2.776195,1.3266 v -1.3266 h -5.5512 v 5.9684 h 5.5512 c 0.2965,-0.6633 0.7035,-1.525 1.5176,-1.9895 0.4441,-0.232 1.258595,-0.6629 2.183595,-0.6629 0.5922,0 1.0734,0.2649 1.2214,0.3313 0.2961,0.1324 0.629,0.6629 0.629,0.9945 0,0.6633 -1.1102,1.0277 -2.4797,1.3266 -0.1848,0.0332 -0.5551,0.298 -0.6289,0.298 l -3.071895,0.6633 c -1.2582,0.2652 -2.9238,1.4586 -3.7012,2.3207 -0.7402,0.8625 -1.2211,1.9894 -1.2211,3.6473 0,0.1988 0,0.1328 0.0367,0.3316 z m -31.348,-5.902 c -1.6652,-5.2382 -3.8859,-7.9902 -10.4,-7.9902 -3.0719,0 -5.6254,1.0277 -7.4024,2.6524 -1.7761,1.5914 -2.7386,4.2769 -2.7386,7.2609 0,2.984 1.0363,5.3051 2.7386,6.9631 1.8508,1.856 4.3305,2.619 7.4024,2.619 3.4051,0 6.0699,-0.564 7.6984,-2.288 1.7024,-1.7902 2.4797,-4.3101 2.4797,-7.2941 V 92.825 92.4934 h -12.325 c 0,-1.3262 0.3336,-2.3539 0.6293,-2.9508 0.5184,-0.9613 1.5176,-1.3262 2.7762,-1.3262 0.5922,0 1.3695,0.3649 1.8133,0.6629 0.2961,0.1992 1.2215,1.923 0.9254,2.6855 z m -12.3984,3.9125 h 4.6265 v 0.3317 c 0,0.9945 -0.2222,1.525 -0.6293,1.9894 -0.4445,0.4973 -0.9254,0.6629 -1.5547,0.6629 -0.9254,0 -1.2953,-0.0332 -1.8504,-0.6629 -0.2589,-0.2656 -0.5921,-0.9949 -0.5921,-1.9894 z m -25.64848,4.6417 V 89.5426 h 2.14648 V 84.2375 H 7.5117322 v 5.3051 h 1.5543 v 15.1854 h -1.5543 v 4.973 H 17.689472 l 7.9945,-14.8865 v 9.9135 h -2.1465 v 4.973 h 8.6235 v -4.973 h -1.5543 V 84.2375 h -8.2906 l -8.32738,15.8815"
       style="fill:#ffffff;fill-opacity:1;fill-rule:evenodd;stroke:none;stroke-width:0.1"
       id="path16"
       sodipodi:nodetypes="cccccccccccccccccccccccccccccscscscsccccsccccscscsccscscscsccccscccccscscsccccccccccccccccccccccccccccccccccccccccccccccccccccccscccccccscsccccscscccccccscsccccsccscscscsccccscccccscscscccccccccccccccccccccc" /></g></svg>